<?xml version="1.0" standalone="no"?>
<!DOCTYPE svg PUBLIC "-//W3C//DTD SVG 20010904//EN"
 "http://www.w3.org/TR/2001/REC-SVG-20010904/DTD/svg10.dtd">
<svg version="1.0" xmlns="http://www.w3.org/2000/svg"
 width="413.000000pt" height="378.000000pt" viewBox="0 0 413.000000 378.000000"
 preserveAspectRatio="xMidYMid meet">

<g transform="translate(0.000000,378.000000) scale(0.100000,-0.100000)"
fill="#000000" stroke="none">
<path d="M1835 3575 c-129 -18 -265 -53 -390 -100 -102 -38 -255 -112 -255
-124 0 -3 100 -106 223 -228 l222 -223 78 25 c229 73 488 73 707 1 l75 -25
223 222 c122 122 222 225 222 229 0 10 -140 80 -233 117 -89 36 -235 76 -348
97 -120 22 -400 27 -524 9z"/>
<path d="M770 3337 c-137 -39 -224 -156 -223 -302 1 -120 -8 -109 568 -685
l525 -525 -524 -525 c-288 -289 -531 -540 -540 -558 -60 -119 -29 -274 71
-362 60 -53 117 -74 203 -74 131 0 114 -14 698 568 l522 521 528 -526 c585
-584 561 -565 692 -563 115 1 212 63 268 169 22 42 26 63 26 130 0 137 16 116
-565 700 l-519 520 519 520 c579 581 566 565 566 695 -1 94 -29 163 -92 221
-65 59 -123 83 -208 83 -128 0 -112 13 -692 -567 l-523 -522 -517 517 c-442
441 -526 521 -573 542 -68 31 -150 40 -210 23z"/>
<path d="M3367 2482 l-228 -228 15 -35 c8 -19 25 -73 37 -119 20 -74 23 -109
24 -270 0 -192 -8 -249 -54 -381 l-19 -56 227 -227 227 -227 61 128 c130 272
181 518 170 823 -9 257 -63 475 -174 703 l-58 118 -228 -229z"/>
<path d="M480 2597 c-201 -417 -233 -890 -89 -1322 39 -119 132 -325 147 -325
4 0 107 100 230 223 l222 223 -19 56 c-44 128 -56 208 -56 373 0 165 12 245
56 373 l19 56 -222 223 c-123 123 -226 223 -230 223 -4 0 -30 -46 -58 -103z"/>
<path d="M1412 527 c-122 -122 -222 -225 -222 -229 0 -4 37 -26 82 -49 506
-254 1099 -251 1605 9 l73 37 -228 227 -227 227 -71 -24 c-215 -73 -500 -73
-715 0 -41 14 -74 25 -74 25 0 0 -100 -100 -223 -223z"/>
</g>
</svg>
